<svg width="20" height="20" viewBox="0 0 44 21" fill="#688800" xmlns="http://www.w3.org/2000/svg"><path d="M9.821 20.843c-.509 0-1.149-.54-1.919-1.619-.77-1.078-1.537-2.377-2.3-3.894-.764-1.518-1.385-2.909-1.865-4.175-.334 1.25-.727 2.791-1.178 4.625a215.24 215.24 0 01-1.068 4.235c-.378 0-.713-.117-1.003-.353-.29-.235-.436-.523-.436-.864 0-.243.102-.69.305-1.338.974-3.375 1.868-6.284 2.682-8.726A153.12 153.12 0 015.874.982a5.736 5.736 0 00-1.429.426c-.4.186-.832.417-1.297.693-.277.179-.45.268-.524.268-.102 0-.24-.082-.414-.244-.175-.162-.262-.3-.262-.414C3.81.82 5.445.372 6.854.372c.902 0 1.774.163 2.617.487a4.844 4.844 0 012.083 1.51c.544.68.817 1.532.817 2.555 0 1.443-.52 2.559-1.559 3.346a8.362 8.362 0 01-3.401 1.558c-1.229.251-2.286.377-3.173.377a96.385 96.385 0 00.74 1.46 56.18 56.18 0 001.648 3.09 22.76 22.76 0 004.306 5.282 1.312 1.312 0 01-.469.56c-.225.162-.44.244-.643.244l.001.002zM4.086 9.817a11.023 11.023 0 003.27-.73C8.388 8.68 9.24 8.089 9.908 7.31c.669-.78 1.003-1.744 1.003-2.896 0-1.234-.374-2.13-1.124-2.69-.748-.56-1.675-.84-2.78-.84-.872 1.948-1.846 4.926-2.922 8.933zm9.071 8.324a.74.74 0 01-.501-.17c-.131-.113-.197-.275-.197-.487 0-.259.138-.49.414-.694.277-.202.56-.303.85-.303.378 0 .567.194.567.584 0 .243-.12.482-.36.717-.239.236-.497.353-.773.353zm5.3.535c-.596 0-1.033-.202-1.31-.608-.276-.405-.413-.94-.413-1.606 0-.666.123-1.363.37-2.093.248-.73.568-1.339.96-1.826.393-.487.785-.73 1.178-.73.13 0 .283.04.457.121-.174.163-.384.52-.632 1.071a13.57 13.57 0 00-.643 1.764c-.183.625-.273 1.132-.273 1.522 0 .925.262 1.388.785 1.388.306 0 .67-.179 1.091-.536.422-.357.836-.828 1.243-1.412-.407-.373-.724-.86-.948-1.46a5.284 5.284 0 01-.338-1.874c0-.844.192-1.566.577-2.166.386-.6.906-.901 1.56-.901.552 0 .94.166 1.166.499.226.332.338.79.338 1.375 0 .616-.134 1.31-.403 2.08a12.36 12.36 0 01-1.058 2.251c.262.163.538.244.829.244.422 0 .858-.142 1.309-.426.45-.283.792-.726 1.025-1.326l.261.243c-.276.715-.669 1.241-1.178 1.582-.508.341-1.032.511-1.57.511-.392 0-.741-.081-1.047-.244-.523.763-1.079 1.38-1.668 1.85-.589.471-1.145.707-1.668.707zm3.205-3.577a10.88 10.88 0 00.916-1.935c.232-.658.35-1.261.35-1.814 0-.454-.063-.795-.187-1.022-.123-.226-.28-.34-.468-.34-.204 0-.411.11-.622.328-.21.22-.385.52-.523.9-.138.382-.207.8-.207 1.254 0 .503.062.986.185 1.448.123.462.31.856.556 1.18zm5.06 3.53c-.597 0-1.037-.228-1.32-.682-.284-.454-.425-1.063-.425-1.825 0-1.46.45-3.444 1.352-5.95.901-2.508 1.908-4.767 3.02-6.78C30.463 1.382 31.266.376 31.76.376c.204 0 .375.198.512.596.138.397.208.799.208 1.204 0 .747-.273 1.846-.818 3.298a27.784 27.784 0 01-2.148 4.417c-.887 1.494-1.832 2.702-2.835 3.627-.189.941-.284 1.76-.284 2.459 0 1.249.32 1.873.96 1.873.538 0 1.086-.38 1.646-1.143.56-.762 1.058-1.68 1.494-2.75l.327.195c-1.25 2.985-2.617 4.478-4.1 4.478zm.152-5.94c.8-.892 1.58-2.015 2.344-3.37a30.099 30.099 0 001.865-3.894c.48-1.242.72-2.138.72-2.69 0-.26-.052-.389-.154-.389-.203 0-.621.556-1.254 1.667-.632 1.111-1.282 2.47-1.951 4.077a34.57 34.57 0 00-1.57 4.6zm7.37-5.305c-.26 0-.475-.069-.643-.207-.167-.138-.25-.337-.25-.596 0-.325.174-.618.523-.876.349-.26.705-.39 1.068-.39.48 0 .72.252.72.755 0 .309-.15.605-.447.888-.298.285-.621.426-.97.426zM31.629 18.53c-.538 0-.952-.19-1.243-.572-.291-.381-.436-.872-.436-1.473 0-.632.164-1.508.49-2.628.327-1.12.735-2.101 1.221-2.946.487-.844.964-1.265 1.428-1.265a.45.45 0 01.338.146.537.537 0 01.143.389c0 .227-.233.77-.698 1.63-.48.894-.862 1.692-1.146 2.398-.283.706-.425 1.375-.425 2.008 0 .568.084.953.251 1.157.167.202.44.304.818.304 1.134 0 2.253-1.242 3.358-3.724l.197.243c-.407 1.364-1.007 2.426-1.8 3.189-.792.762-1.624 1.143-2.496 1.143v.001zm5.19.146c-.596 0-1.032-.203-1.31-.608-.275-.405-.413-.941-.413-1.607 0-.665.123-1.362.371-2.092.247-.73.567-1.34.96-1.826.392-.487.785-.73 1.177-.73.13 0 .284.04.458.121-.175.162-.385.519-.633 1.071-.247.552-.461 1.14-.643 1.764-.181.625-.272 1.132-.272 1.522 0 .924.262 1.387.785 1.387.305 0 .669-.178 1.09-.535.422-.358.836-.828 1.242-1.412-.406-.374-.722-.86-.948-1.46a5.3 5.3 0 01-.338-1.874c0-.844.193-1.566.578-2.167.385-.6.905-.9 1.56-.9.552 0 .94.165 1.166.499.225.332.338.79.338 1.374 0 .617-.134 1.31-.404 2.081-.269.77-.621 1.521-1.057 2.251.261.162.537.244.829.244.421 0 .858-.142 1.308-.426.45-.284.792-.726 1.025-1.326l.261.243c-.276.714-.669 1.241-1.178 1.582-.508.34-1.032.51-1.57.51a2.19 2.19 0 01-1.047-.243c-.523.763-1.079 1.38-1.668 1.85-.589.471-1.144.706-1.668.706l.001.001zm3.206-3.577c.377-.633.683-1.278.916-1.935.232-.658.349-1.262.349-1.814 0-.454-.062-.795-.186-1.022-.123-.227-.28-.34-.468-.34-.204 0-.411.11-.622.328-.21.22-.385.519-.523.9s-.207.8-.207 1.254c0 .503.061.986.185 1.448.123.462.31.856.556 1.18z"/></svg>